# xmcd
#
# Track frame offsets:
#	183
#	12380
#	27043
#	44958
#	59590
#	75950
#	93703
#	104168
#	117928
#	131880
#
# Disc length: 2041 seconds
#
# Revision: 3
# Processed by: cddbd v1.5.2PL0 Copyright (c) Steve Scherf et al.
# Submitted via: EZCDAudioConverter 7.1.5.1
#
DISCID=8e07f70a
DTITLE=Robin Lee - Heart On A Chain
DYEAR=1991
DGENRE=Country
TTITLE0=Back To Bein' Blue
TTITLE1=When You Get A Little Lonely
TTITLE2=The End Of The Line
TTITLE3=When I Miss You
TTITLE4=Johnny's Angel (Solo Sometime)
TTITLE5=Heart On A Chain
TTITLE6=Nothin' But You
TTITLE7=Don't Let The Same Dog Bite You Twice
TTITLE8=Betrayed
TTITLE9=I'd Walk Through Fire
EXTD=
EXTT0=
EXTT1=
EXTT2=
EXTT3=
EXTT4=
EXTT5=
EXTT6=
EXTT7=
EXTT8=
EXTT9=
PLAYORDER=
